solid CATIA STL
  facet normal -1.000000e+000  0.000000e+000  0.000000e+000
    outer loop
      vertex -1.020000e+001  1.510000e+001  5.000000e+000
      vertex -1.020000e+001  6.299437e+000  2.851924e+000
      vertex -1.020000e+001  5.699282e+000  3.596978e+000
    endloop
  endfacet
  facet normal -1.000000e+000  0.000000e+000  0.000000e+000
    outer loop
      vertex -1.020000e+001  1.510000e+001  5.000000e+000
      vertex -1.020000e+001  5.699282e+000  3.596978e+000
      vertex -1.020000e+001  4.748075e+000  3.699437e+000
    endloop
  endfacet
  facet normal -9.999999e-001  0.000000e+000  0.000000e+000
    outer loop
      vertex -1.020000e+001  1.510000e+001  5.000000e+000
      vertex -1.020000e+001  4.748075e+000  3.699437e+000
      vertex -1.020000e+001 -4.900000e+000  5.000000e+000
    endloop
  endfacet
  facet normal -1.000000e+000  0.000000e+000  0.000000e+000
    outer loop
      vertex -1.020000e+001 -4.900000e+000  0.000000e+000
      vertex -1.020000e+001 -4.900000e+000  5.000000e+000
      vertex -1.020000e+001  4.748075e+000  3.699437e+000
    endloop
  endfacet
  facet normal -1.000000e+000  0.000000e+000  0.000000e+000
    outer loop
      vertex -1.020000e+001 -4.900000e+000  0.000000e+000
      vertex -1.020000e+001  4.748075e+000  3.699437e+000
      vertex -1.020000e+001  4.003022e+000  3.099282e+000
    endloop
  endfacet
  facet normal -1.000000e+000  0.000000e+000  0.000000e+000
    outer loop
      vertex -1.020000e+001 -4.900000e+000  0.000000e+000
      vertex -1.020000e+001  4.003022e+000  3.099282e+000
      vertex -1.020000e+001  3.900563e+000  2.148076e+000
    endloop
  endfacet
  facet normal -1.000000e+000  0.000000e+000  -0.000000e+000
    outer loop
      vertex -1.020000e+001 -4.900000e+000  0.000000e+000
      vertex -1.020000e+001  3.900563e+000  2.148076e+000
      vertex -1.020000e+001  4.500718e+000  1.403022e+000
    endloop
  endfacet
  facet normal -1.000000e+000  0.000000e+000  -0.000000e+000
    outer loop
      vertex -1.020000e+001 -4.900000e+000  0.000000e+000
      vertex -1.020000e+001  4.500718e+000  1.403022e+000
      vertex -1.020000e+001  5.451924e+000  1.300563e+000
    endloop
  endfacet
  facet normal -1.000000e+000  0.000000e+000  -0.000000e+000
    outer loop
      vertex -1.020000e+001 -4.900000e+000  0.000000e+000
      vertex -1.020000e+001  5.451924e+000  1.300563e+000
      vertex -1.020000e+001  1.510000e+001  0.000000e+000
    endloop
  endfacet
  facet normal -1.000000e+000  0.000000e+000  0.000000e+000
    outer loop
      vertex -1.020000e+001  1.510000e+001  0.000000e+000
      vertex -1.020000e+001  5.451924e+000  1.300563e+000
      vertex -1.020000e+001  6.196978e+000  1.900718e+000
    endloop
  endfacet
  facet normal -1.000000e+000  0.000000e+000  0.000000e+000
    outer loop
      vertex -1.020000e+001  1.510000e+001  0.000000e+000
      vertex -1.020000e+001  6.196978e+000  1.900718e+000
      vertex -1.020000e+001  6.299437e+000  2.851924e+000
    endloop
  endfacet
  facet normal -1.000000e+000  0.000000e+000  0.000000e+000
    outer loop
      vertex -1.020000e+001  1.510000e+001  0.000000e+000
      vertex -1.020000e+001  6.299437e+000  2.851924e+000
      vertex -1.020000e+001  1.510000e+001  5.000000e+000
    endloop
  endfacet
  facet normal  1.000000e+000  0.000000e+000  0.000000e+000
    outer loop
      vertex  3.800000e+000 -4.900000e+000  0.000000e+000
      vertex  3.800000e+000  4.500718e+000  1.403022e+000
      vertex  3.800000e+000  3.900563e+000  2.148076e+000
    endloop
  endfacet
  facet normal  1.000000e+000  0.000000e+000  0.000000e+000
    outer loop
      vertex  3.800000e+000 -4.900000e+000  5.000000e+000
      vertex  3.800000e+000 -4.900000e+000  0.000000e+000
      vertex  3.800000e+000  3.900563e+000  2.148076e+000
    endloop
  endfacet
  facet normal  1.000000e+000  0.000000e+000  -0.000000e+000
    outer loop
      vertex  3.800000e+000 -4.900000e+000  5.000000e+000
      vertex  3.800000e+000  3.900563e+000  2.148076e+000
      vertex  3.800000e+000  4.003022e+000  3.099282e+000
    endloop
  endfacet
  facet normal  1.000000e+000  0.000000e+000  -0.000000e+000
    outer loop
      vertex  3.800000e+000 -4.900000e+000  5.000000e+000
      vertex  3.800000e+000  4.003022e+000  3.099282e+000
      vertex  3.800000e+000  4.748075e+000  3.699437e+000
    endloop
  endfacet
  facet normal  9.999999e-001  -0.000000e+000  -0.000000e+000
    outer loop
      vertex  3.800000e+000 -4.900000e+000  5.000000e+000
      vertex  3.800000e+000  4.748075e+000  3.699437e+000
      vertex  3.800000e+000  5.699282e+000  3.596978e+000
    endloop
  endfacet
  facet normal  1.000000e+000  0.000000e+000  -0.000000e+000
    outer loop
      vertex  3.800000e+000 -4.900000e+000  5.000000e+000
      vertex  3.800000e+000  5.699282e+000  3.596978e+000
      vertex  3.800000e+000  1.510000e+001  5.000000e+000
    endloop
  endfacet
  facet normal  1.000000e+000  0.000000e+000  0.000000e+000
    outer loop
      vertex  3.800000e+000  1.510000e+001  0.000000e+000
      vertex  3.800000e+000  1.510000e+001  5.000000e+000
      vertex  3.800000e+000  5.699282e+000  3.596978e+000
    endloop
  endfacet
  facet normal  1.000000e+000  0.000000e+000  0.000000e+000
    outer loop
      vertex  3.800000e+000  1.510000e+001  0.000000e+000
      vertex  3.800000e+000  5.699282e+000  3.596978e+000
      vertex  3.800000e+000  6.299437e+000  2.851924e+000
    endloop
  endfacet
  facet normal  1.000000e+000  0.000000e+000  0.000000e+000
    outer loop
      vertex  3.800000e+000  1.510000e+001  0.000000e+000
      vertex  3.800000e+000  6.299437e+000  2.851924e+000
      vertex  3.800000e+000  6.196978e+000  1.900718e+000
    endloop
  endfacet
  facet normal  1.000000e+000  0.000000e+000  0.000000e+000
    outer loop
      vertex  3.800000e+000  1.510000e+001  0.000000e+000
      vertex  3.800000e+000  6.196978e+000  1.900718e+000
      vertex  3.800000e+000  5.451924e+000  1.300563e+000
    endloop
  endfacet
  facet normal  1.000000e+000  0.000000e+000  0.000000e+000
    outer loop
      vertex  3.800000e+000  1.510000e+001  0.000000e+000
      vertex  3.800000e+000  5.451924e+000  1.300563e+000
      vertex  3.800000e+000  4.500718e+000  1.403022e+000
    endloop
  endfacet
  facet normal  1.000000e+000  0.000000e+000  0.000000e+000
    outer loop
      vertex  3.800000e+000  1.510000e+001  0.000000e+000
      vertex  3.800000e+000  4.500718e+000  1.403022e+000
      vertex  3.800000e+000 -4.900000e+000  0.000000e+000
    endloop
  endfacet
  facet normal -1.000000e+000  -0.000000e+000  0.000000e+000
    outer loop
      vertex  3.552714e-015  3.900563e+000  2.148076e+000
      vertex  3.552714e-015  4.500718e+000  1.403022e+000
      vertex  3.552714e-015  0.000000e+000  0.000000e+000
    endloop
  endfacet
  facet normal -1.000000e+000  -0.000000e+000  0.000000e+000
    outer loop
      vertex  3.552714e-015  0.000000e+000  5.000000e+000
      vertex  3.552714e-015  1.020000e+001  5.000000e+000
      vertex  3.552714e-015  5.699282e+000  3.596978e+000
    endloop
  endfacet
  facet normal -1.000000e+000  0.000000e+000  0.000000e+000
    outer loop
      vertex  3.552714e-015  0.000000e+000  5.000000e+000
      vertex  3.552714e-015  5.699282e+000  3.596978e+000
      vertex  3.552714e-015  4.748075e+000  3.699437e+000
    endloop
  endfacet
  facet normal -1.000000e+000  -0.000000e+000  0.000000e+000
    outer loop
      vertex  3.552714e-015  0.000000e+000  5.000000e+000
      vertex  3.552714e-015  4.748075e+000  3.699437e+000
      vertex  3.552714e-015  4.003022e+000  3.099282e+000
    endloop
  endfacet
  facet normal -1.000000e+000  -0.000000e+000  0.000000e+000
    outer loop
      vertex  3.552714e-015  0.000000e+000  5.000000e+000
      vertex  3.552714e-015  4.003022e+000  3.099282e+000
      vertex  3.552714e-015  3.900563e+000  2.148076e+000
    endloop
  endfacet
  facet normal -1.000000e+000  -0.000000e+000  0.000000e+000
    outer loop
      vertex  3.552714e-015  0.000000e+000  5.000000e+000
      vertex  3.552714e-015  3.900563e+000  2.148076e+000
      vertex  3.552714e-015  0.000000e+000  0.000000e+000
    endloop
  endfacet
  facet normal -1.000000e+000  0.000000e+000  0.000000e+000
    outer loop
      vertex  3.552714e-015  1.020000e+001  0.000000e+000
      vertex  3.552714e-015  0.000000e+000  0.000000e+000
      vertex  3.552714e-015  4.500718e+000  1.403022e+000
    endloop
  endfacet
  facet normal -9.999999e-001  0.000000e+000  0.000000e+000
    outer loop
      vertex  3.552714e-015  1.020000e+001  0.000000e+000
      vertex  3.552714e-015  4.500718e+000  1.403022e+000
      vertex  3.552714e-015  5.451924e+000  1.300563e+000
    endloop
  endfacet
  facet normal -1.000000e+000  0.000000e+000  0.000000e+000
    outer loop
      vertex  3.552714e-015  1.020000e+001  0.000000e+000
      vertex  3.552714e-015  5.451924e+000  1.300563e+000
      vertex  3.552714e-015  6.196978e+000  1.900718e+000
    endloop
  endfacet
  facet normal -1.000000e+000  0.000000e+000  0.000000e+000
    outer loop
      vertex  3.552714e-015  1.020000e+001  0.000000e+000
      vertex  3.552714e-015  6.196978e+000  1.900718e+000
      vertex  3.552714e-015  6.299437e+000  2.851924e+000
    endloop
  endfacet
  facet normal -1.000000e+000  0.000000e+000  0.000000e+000
    outer loop
      vertex  3.552714e-015  1.020000e+001  0.000000e+000
      vertex  3.552714e-015  6.299437e+000  2.851924e+000
      vertex  3.552714e-015  5.699282e+000  3.596978e+000
    endloop
  endfacet
  facet normal -1.000000e+000  0.000000e+000  0.000000e+000
    outer loop
      vertex  3.552714e-015  1.020000e+001  0.000000e+000
      vertex  3.552714e-015  5.699282e+000  3.596978e+000
      vertex  3.552714e-015  1.020000e+001  5.000000e+000
    endloop
  endfacet
  facet normal  1.000000e+000  -0.000000e+000  0.000000e+000
    outer loop
      vertex -6.400000e+000  1.020000e+001  5.000000e+000
      vertex -6.400000e+000  0.000000e+000  5.000000e+000
      vertex -6.400000e+000  4.748075e+000  3.699437e+000
    endloop
  endfacet
  facet normal  1.000000e+000  -0.000000e+000  0.000000e+000
    outer loop
      vertex -6.400000e+000  1.020000e+001  5.000000e+000
      vertex -6.400000e+000  4.748075e+000  3.699437e+000
      vertex -6.400000e+000  5.699282e+000  3.596978e+000
    endloop
  endfacet
  facet normal  1.000000e+000  -0.000000e+000  0.000000e+000
    outer loop
      vertex -6.400000e+000  1.020000e+001  5.000000e+000
      vertex -6.400000e+000  5.699282e+000  3.596978e+000
      vertex -6.400000e+000  6.299437e+000  2.851924e+000
    endloop
  endfacet
  facet normal  1.000000e+000  0.000000e+000  0.000000e+000
    outer loop
      vertex -6.400000e+000  0.000000e+000  0.000000e+000
      vertex -6.400000e+000  1.020000e+001  0.000000e+000
      vertex -6.400000e+000  5.451924e+000  1.300563e+000
    endloop
  endfacet
  facet normal  1.000000e+000  0.000000e+000  0.000000e+000
    outer loop
      vertex -6.400000e+000  0.000000e+000  0.000000e+000
      vertex -6.400000e+000  5.451924e+000  1.300563e+000
      vertex -6.400000e+000  4.500718e+000  1.403022e+000
    endloop
  endfacet
  facet normal  1.000000e+000  0.000000e+000  0.000000e+000
    outer loop
      vertex -6.400000e+000  0.000000e+000  0.000000e+000
      vertex -6.400000e+000  4.500718e+000  1.403022e+000
      vertex -6.400000e+000  3.900563e+000  2.148076e+000
    endloop
  endfacet
  facet normal  1.000000e+000  0.000000e+000  -0.000000e+000
    outer loop
      vertex -6.400000e+000  0.000000e+000  0.000000e+000
      vertex -6.400000e+000  3.900563e+000  2.148076e+000
      vertex -6.400000e+000  4.003022e+000  3.099282e+000
    endloop
  endfacet
  facet normal  9.999999e-001  0.000000e+000  -0.000000e+000
    outer loop
      vertex -6.400000e+000  0.000000e+000  0.000000e+000
      vertex -6.400000e+000  4.003022e+000  3.099282e+000
      vertex -6.400000e+000  4.748075e+000  3.699437e+000
    endloop
  endfacet
  facet normal  1.000000e+000  0.000000e+000  0.000000e+000
    outer loop
      vertex -6.400000e+000  0.000000e+000  0.000000e+000
      vertex -6.400000e+000  4.748075e+000  3.699437e+000
      vertex -6.400000e+000  0.000000e+000  5.000000e+000
    endloop
  endfacet
  facet normal  1.000000e+000  0.000000e+000  0.000000e+000
    outer loop
      vertex -6.400000e+000  1.020000e+001  0.000000e+000
      vertex -6.400000e+000  1.020000e+001  5.000000e+000
      vertex -6.400000e+000  6.299437e+000  2.851924e+000
    endloop
  endfacet
  facet normal  1.000000e+000  0.000000e+000  0.000000e+000
    outer loop
      vertex -6.400000e+000  1.020000e+001  0.000000e+000
      vertex -6.400000e+000  6.299437e+000  2.851924e+000
      vertex -6.400000e+000  6.196978e+000  1.900718e+000
    endloop
  endfacet
  facet normal  1.000000e+000  0.000000e+000  0.000000e+000
    outer loop
      vertex -6.400000e+000  1.020000e+001  0.000000e+000
      vertex -6.400000e+000  6.196978e+000  1.900718e+000
      vertex -6.400000e+000  5.451924e+000  1.300563e+000
    endloop
  endfacet
  facet normal  -0.000000e+000  7.787677e-001  6.273124e-001
    outer loop
      vertex  3.800000e+000  4.500718e+000  1.403022e+000
      vertex  3.552714e-015  3.900563e+000  2.148076e+000
      vertex  3.800000e+000  3.900563e+000  2.148076e+000
    endloop
  endfacet
  facet normal  0.000000e+000  9.942488e-001 -1.070950e-001
    outer loop
      vertex  3.800000e+000  3.900563e+000  2.148076e+000
      vertex  3.552714e-015  3.900563e+000  2.148076e+000
      vertex  3.552714e-015  4.003022e+000  3.099282e+000
    endloop
  endfacet
  facet normal  0.000000e+000  9.942488e-001 -1.070950e-001
    outer loop
      vertex  3.800000e+000  3.900563e+000  2.148076e+000
      vertex  3.552714e-015  4.003022e+000  3.099282e+000
      vertex  3.800000e+000  4.003022e+000  3.099282e+000
    endloop
  endfacet
  facet normal  0.000000e+000  7.787677e-001  6.273124e-001
    outer loop
      vertex  3.552714e-015  3.900563e+000  2.148076e+000
      vertex  3.800000e+000  4.500718e+000  1.403022e+000
      vertex  3.552714e-015  4.500718e+000  1.403022e+000
    endloop
  endfacet
  facet normal  -0.000000e+000  1.070951e-001  9.942487e-001
    outer loop
      vertex  3.552714e-015  4.500718e+000  1.403022e+000
      vertex  3.800000e+000  4.500718e+000  1.403022e+000
      vertex  3.800000e+000  5.451924e+000  1.300563e+000
    endloop
  endfacet
  facet normal  0.000000e+000  1.070951e-001  9.942487e-001
    outer loop
      vertex  3.552714e-015  4.500718e+000  1.403022e+000
      vertex  3.800000e+000  5.451924e+000  1.300563e+000
      vertex  3.552714e-015  5.451924e+000  1.300563e+000
    endloop
  endfacet
  facet normal  0.000000e+000 -6.273124e-001  7.787677e-001
    outer loop
      vertex  3.552714e-015  5.451924e+000  1.300563e+000
      vertex  3.800000e+000  5.451924e+000  1.300563e+000
      vertex  3.800000e+000  6.196978e+000  1.900718e+000
    endloop
  endfacet
  facet normal  0.000000e+000 -6.273124e-001  7.787677e-001
    outer loop
      vertex  3.552714e-015  5.451924e+000  1.300563e+000
      vertex  3.800000e+000  6.196978e+000  1.900718e+000
      vertex  3.552714e-015  6.196978e+000  1.900718e+000
    endloop
  endfacet
  facet normal  -0.000000e+000  7.787677e-001  6.273124e-001
    outer loop
      vertex -6.400000e+000  4.500718e+000  1.403022e+000
      vertex -1.020000e+001  3.900563e+000  2.148076e+000
      vertex -6.400000e+000  3.900563e+000  2.148076e+000
    endloop
  endfacet
  facet normal  0.000000e+000  9.942487e-001 -1.070950e-001
    outer loop
      vertex -6.400000e+000  3.900563e+000  2.148076e+000
      vertex -1.020000e+001  3.900563e+000  2.148076e+000
      vertex -1.020000e+001  4.003022e+000  3.099282e+000
    endloop
  endfacet
  facet normal  0.000000e+000  9.942487e-001 -1.070950e-001
    outer loop
      vertex -6.400000e+000  3.900563e+000  2.148076e+000
      vertex -1.020000e+001  4.003022e+000  3.099282e+000
      vertex -6.400000e+000  4.003022e+000  3.099282e+000
    endloop
  endfacet
  facet normal  0.000000e+000  7.787677e-001  6.273124e-001
    outer loop
      vertex -1.020000e+001  3.900563e+000  2.148076e+000
      vertex -6.400000e+000  4.500718e+000  1.403022e+000
      vertex -1.020000e+001  4.500718e+000  1.403022e+000
    endloop
  endfacet
  facet normal  -0.000000e+000  1.070952e-001  9.942488e-001
    outer loop
      vertex -1.020000e+001  4.500718e+000  1.403022e+000
      vertex -6.400000e+000  4.500718e+000  1.403022e+000
      vertex -6.400000e+000  5.451924e+000  1.300563e+000
    endloop
  endfacet
  facet normal  0.000000e+000  1.070952e-001  9.942488e-001
    outer loop
      vertex -1.020000e+001  4.500718e+000  1.403022e+000
      vertex -6.400000e+000  5.451924e+000  1.300563e+000
      vertex -1.020000e+001  5.451924e+000  1.300563e+000
    endloop
  endfacet
  facet normal  0.000000e+000 -6.273124e-001  7.787677e-001
    outer loop
      vertex -1.020000e+001  5.451924e+000  1.300563e+000
      vertex -6.400000e+000  5.451924e+000  1.300563e+000
      vertex -6.400000e+000  6.196978e+000  1.900718e+000
    endloop
  endfacet
  facet normal  0.000000e+000 -6.273124e-001  7.787677e-001
    outer loop
      vertex -1.020000e+001  5.451924e+000  1.300563e+000
      vertex -6.400000e+000  6.196978e+000  1.900718e+000
      vertex -1.020000e+001  6.196978e+000  1.900718e+000
    endloop
  endfacet
  facet normal  0.000000e+000 -7.787676e-001 -6.273125e-001
    outer loop
      vertex  3.800000e+000  5.699282e+000  3.596978e+000
      vertex  3.552714e-015  6.299437e+000  2.851924e+000
      vertex  3.800000e+000  6.299437e+000  2.851924e+000
    endloop
  endfacet
  facet normal  0.000000e+000 -9.942488e-001  1.070953e-001
    outer loop
      vertex  3.800000e+000  6.299437e+000  2.851924e+000
      vertex  3.552714e-015  6.299437e+000  2.851924e+000
      vertex  3.552714e-015  6.196978e+000  1.900718e+000
    endloop
  endfacet
  facet normal  0.000000e+000 -9.942488e-001  1.070953e-001
    outer loop
      vertex  3.800000e+000  6.299437e+000  2.851924e+000
      vertex  3.552714e-015  6.196978e+000  1.900718e+000
      vertex  3.800000e+000  6.196978e+000  1.900718e+000
    endloop
  endfacet
  facet normal  -0.000000e+000 -7.787676e-001 -6.273125e-001
    outer loop
      vertex  3.552714e-015  6.299437e+000  2.851924e+000
      vertex  3.800000e+000  5.699282e+000  3.596978e+000
      vertex  3.552714e-015  5.699282e+000  3.596978e+000
    endloop
  endfacet
  facet normal  0.000000e+000 -1.070953e-001 -9.942487e-001
    outer loop
      vertex  3.552714e-015  5.699282e+000  3.596978e+000
      vertex  3.800000e+000  5.699282e+000  3.596978e+000
      vertex  3.800000e+000  4.748075e+000  3.699437e+000
    endloop
  endfacet
  facet normal  -0.000000e+000 -1.070953e-001 -9.942487e-001
    outer loop
      vertex  3.552714e-015  5.699282e+000  3.596978e+000
      vertex  3.800000e+000  4.748075e+000  3.699437e+000
      vertex  3.552714e-015  4.748075e+000  3.699437e+000
    endloop
  endfacet
  facet normal  0.000000e+000  6.273124e-001 -7.787677e-001
    outer loop
      vertex  3.552714e-015  4.748075e+000  3.699437e+000
      vertex  3.800000e+000  4.748075e+000  3.699437e+000
      vertex  3.800000e+000  4.003022e+000  3.099282e+000
    endloop
  endfacet
  facet normal  0.000000e+000  6.273124e-001 -7.787677e-001
    outer loop
      vertex  3.552714e-015  4.748075e+000  3.699437e+000
      vertex  3.800000e+000  4.003022e+000  3.099282e+000
      vertex  3.552714e-015  4.003022e+000  3.099282e+000
    endloop
  endfacet
  facet normal  0.000000e+000 -7.787676e-001 -6.273125e-001
    outer loop
      vertex -6.400000e+000  5.699282e+000  3.596978e+000
      vertex -1.020000e+001  6.299437e+000  2.851924e+000
      vertex -6.400000e+000  6.299437e+000  2.851924e+000
    endloop
  endfacet
  facet normal  0.000000e+000 -9.942488e-001  1.070953e-001
    outer loop
      vertex -6.400000e+000  6.299437e+000  2.851924e+000
      vertex -1.020000e+001  6.299437e+000  2.851924e+000
      vertex -1.020000e+001  6.196978e+000  1.900718e+000
    endloop
  endfacet
  facet normal  0.000000e+000 -9.942488e-001  1.070953e-001
    outer loop
      vertex -6.400000e+000  6.299437e+000  2.851924e+000
      vertex -1.020000e+001  6.196978e+000  1.900718e+000
      vertex -6.400000e+000  6.196978e+000  1.900718e+000
    endloop
  endfacet
  facet normal  -0.000000e+000 -7.787676e-001 -6.273125e-001
    outer loop
      vertex -1.020000e+001  6.299437e+000  2.851924e+000
      vertex -6.400000e+000  5.699282e+000  3.596978e+000
      vertex -1.020000e+001  5.699282e+000  3.596978e+000
    endloop
  endfacet
  facet normal  0.000000e+000 -1.070953e-001 -9.942488e-001
    outer loop
      vertex -1.020000e+001  5.699282e+000  3.596978e+000
      vertex -6.400000e+000  5.699282e+000  3.596978e+000
      vertex -6.400000e+000  4.748075e+000  3.699437e+000
    endloop
  endfacet
  facet normal  -0.000000e+000 -1.070953e-001 -9.942488e-001
    outer loop
      vertex -1.020000e+001  5.699282e+000  3.596978e+000
      vertex -6.400000e+000  4.748075e+000  3.699437e+000
      vertex -1.020000e+001  4.748075e+000  3.699437e+000
    endloop
  endfacet
  facet normal  0.000000e+000  6.273124e-001 -7.787677e-001
    outer loop
      vertex -1.020000e+001  4.748075e+000  3.699437e+000
      vertex -6.400000e+000  4.748075e+000  3.699437e+000
      vertex -6.400000e+000  4.003022e+000  3.099282e+000
    endloop
  endfacet
  facet normal  0.000000e+000  6.273124e-001 -7.787677e-001
    outer loop
      vertex -1.020000e+001  4.748075e+000  3.699437e+000
      vertex -6.400000e+000  4.003022e+000  3.099282e+000
      vertex -1.020000e+001  4.003022e+000  3.099282e+000
    endloop
  endfacet
  facet normal  0.000000e+000  0.000000e+000  1.000000e+000
    outer loop
      vertex  3.800000e+000 -4.900000e+000  5.000000e+000
      vertex  3.552714e-015  0.000000e+000  5.000000e+000
      vertex -1.020000e+001 -4.900000e+000  5.000000e+000
    endloop
  endfacet
  facet normal  0.000000e+000  0.000000e+000  1.000000e+000
    outer loop
      vertex -1.020000e+001 -4.900000e+000  5.000000e+000
      vertex  3.552714e-015  0.000000e+000  5.000000e+000
      vertex -6.400000e+000  0.000000e+000  5.000000e+000
    endloop
  endfacet
  facet normal  0.000000e+000  0.000000e+000  1.000000e+000
    outer loop
      vertex -1.020000e+001 -4.900000e+000  5.000000e+000
      vertex -6.400000e+000  0.000000e+000  5.000000e+000
      vertex -1.020000e+001  1.510000e+001  5.000000e+000
    endloop
  endfacet
  facet normal  0.000000e+000  0.000000e+000  1.000000e+000
    outer loop
      vertex -1.020000e+001  1.510000e+001  5.000000e+000
      vertex -6.400000e+000  0.000000e+000  5.000000e+000
      vertex -6.400000e+000  1.020000e+001  5.000000e+000
    endloop
  endfacet
  facet normal  0.000000e+000  -0.000000e+000  1.000000e+000
    outer loop
      vertex -1.020000e+001  1.510000e+001  5.000000e+000
      vertex -6.400000e+000  1.020000e+001  5.000000e+000
      vertex  3.800000e+000  1.510000e+001  5.000000e+000
    endloop
  endfacet
  facet normal  0.000000e+000  0.000000e+000  1.000000e+000
    outer loop
      vertex  3.800000e+000  1.510000e+001  5.000000e+000
      vertex -6.400000e+000  1.020000e+001  5.000000e+000
      vertex  3.552714e-015  1.020000e+001  5.000000e+000
    endloop
  endfacet
  facet normal  -0.000000e+000  0.000000e+000  1.000000e+000
    outer loop
      vertex  3.800000e+000  1.510000e+001  5.000000e+000
      vertex  3.552714e-015  1.020000e+001  5.000000e+000
      vertex  3.800000e+000 -4.900000e+000  5.000000e+000
    endloop
  endfacet
  facet normal  0.000000e+000  0.000000e+000  1.000000e+000
    outer loop
      vertex  3.800000e+000 -4.900000e+000  5.000000e+000
      vertex  3.552714e-015  1.020000e+001  5.000000e+000
      vertex  3.552714e-015  0.000000e+000  5.000000e+000
    endloop
  endfacet
  facet normal  -0.000000e+000  0.000000e+000 -1.000000e+000
    outer loop
      vertex -1.020000e+001  1.510000e+001  0.000000e+000
      vertex -6.400000e+000  0.000000e+000  0.000000e+000
      vertex -1.020000e+001 -4.900000e+000  0.000000e+000
    endloop
  endfacet
  facet normal  0.000000e+000  0.000000e+000 -1.000000e+000
    outer loop
      vertex -1.020000e+001 -4.900000e+000  0.000000e+000
      vertex -6.400000e+000  0.000000e+000  0.000000e+000
      vertex  3.552714e-015  0.000000e+000  0.000000e+000
    endloop
  endfacet
  facet normal  0.000000e+000  -0.000000e+000 -1.000000e+000
    outer loop
      vertex -1.020000e+001 -4.900000e+000  0.000000e+000
      vertex  3.552714e-015  0.000000e+000  0.000000e+000
      vertex  3.800000e+000 -4.900000e+000  0.000000e+000
    endloop
  endfacet
  facet normal  0.000000e+000  0.000000e+000 -1.000000e+000
    outer loop
      vertex -6.400000e+000  0.000000e+000  0.000000e+000
      vertex -1.020000e+001  1.510000e+001  0.000000e+000
      vertex -6.400000e+000  1.020000e+001  0.000000e+000
    endloop
  endfacet
  facet normal  0.000000e+000  0.000000e+000 -1.000000e+000
    outer loop
      vertex -6.400000e+000  1.020000e+001  0.000000e+000
      vertex -1.020000e+001  1.510000e+001  0.000000e+000
      vertex  3.800000e+000  1.510000e+001  0.000000e+000
    endloop
  endfacet
  facet normal  0.000000e+000  0.000000e+000 -1.000000e+000
    outer loop
      vertex -6.400000e+000  1.020000e+001  0.000000e+000
      vertex  3.800000e+000  1.510000e+001  0.000000e+000
      vertex  3.552714e-015  1.020000e+001  0.000000e+000
    endloop
  endfacet
  facet normal  0.000000e+000  0.000000e+000 -1.000000e+000
    outer loop
      vertex  3.552714e-015  1.020000e+001  0.000000e+000
      vertex  3.800000e+000  1.510000e+001  0.000000e+000
      vertex  3.800000e+000 -4.900000e+000  0.000000e+000
    endloop
  endfacet
  facet normal  0.000000e+000  0.000000e+000 -1.000000e+000
    outer loop
      vertex  3.552714e-015  1.020000e+001  0.000000e+000
      vertex  3.800000e+000 -4.900000e+000  0.000000e+000
      vertex  3.552714e-015  0.000000e+000  0.000000e+000
    endloop
  endfacet
  facet normal  0.000000e+000  1.000000e+000  -0.000000e+000
    outer loop
      vertex  3.552714e-015  0.000000e+000  5.000000e+000
      vertex  3.552714e-015  0.000000e+000  0.000000e+000
      vertex -6.400000e+000  0.000000e+000  5.000000e+000
    endloop
  endfacet
  facet normal  0.000000e+000  1.000000e+000  0.000000e+000
    outer loop
      vertex -6.400000e+000  0.000000e+000  5.000000e+000
      vertex  3.552714e-015  0.000000e+000  0.000000e+000
      vertex -6.400000e+000  0.000000e+000  0.000000e+000
    endloop
  endfacet
  facet normal  0.000000e+000 -1.000000e+000  0.000000e+000
    outer loop
      vertex -6.400000e+000  1.020000e+001  5.000000e+000
      vertex -6.400000e+000  1.020000e+001  0.000000e+000
      vertex  3.552714e-015  1.020000e+001  5.000000e+000
    endloop
  endfacet
  facet normal  0.000000e+000 -1.000000e+000  -0.000000e+000
    outer loop
      vertex  3.552714e-015  1.020000e+001  5.000000e+000
      vertex -6.400000e+000  1.020000e+001  0.000000e+000
      vertex  3.552714e-015  1.020000e+001  0.000000e+000
    endloop
  endfacet
  facet normal  0.000000e+000  1.000000e+000  0.000000e+000
    outer loop
      vertex -1.020000e+001  1.510000e+001  5.000000e+000
      vertex  3.800000e+000  1.510000e+001  5.000000e+000
      vertex -1.020000e+001  1.510000e+001  0.000000e+000
    endloop
  endfacet
  facet normal  0.000000e+000  1.000000e+000  0.000000e+000
    outer loop
      vertex -1.020000e+001  1.510000e+001  0.000000e+000
      vertex  3.800000e+000  1.510000e+001  5.000000e+000
      vertex  3.800000e+000  1.510000e+001  0.000000e+000
    endloop
  endfacet
  facet normal  0.000000e+000 -1.000000e+000  0.000000e+000
    outer loop
      vertex  3.800000e+000 -4.900000e+000  5.000000e+000
      vertex -1.020000e+001 -4.900000e+000  5.000000e+000
      vertex  3.800000e+000 -4.900000e+000  0.000000e+000
    endloop
  endfacet
  facet normal  0.000000e+000 -1.000000e+000  0.000000e+000
    outer loop
      vertex  3.800000e+000 -4.900000e+000  0.000000e+000
      vertex -1.020000e+001 -4.900000e+000  5.000000e+000
      vertex -1.020000e+001 -4.900000e+000  0.000000e+000
    endloop
  endfacet
endsolid CATIA STL
